# File created by Blade
# Date/Time:  Mon Sep 22 15:39:46 2014
# Frame Rate: 120.000 fps
#------------------------------------------------------
:FULLY-SPECIFIED
:DEGREES
2230
root 1.546065 37.055112 2.845563 -0.875149 -7.693082 1.715191
RightUpLeg 9.059575 -2.924016 -2.767908
RightLeg -5.531889 -0.000000 0.000000
RightFoot -12.205532 -13.306398 15.440121
RightToeBase 15.505006 -0.000000 -0.000000
LeftUpLeg 8.859340 5.816969 2.665579
LeftLeg -2.735621 -0.000000 0.000000
LeftFoot -10.111443 14.135956 -19.212606
LeftToeBase 8.030663 -0.000000 -0.000000
Spine 3.169023 -2.440152 -7.485772
RightShoulder 5.372621 -14.461961 -35.562253
RightArm -171.276688 -176.940807 -169.990850
RightForeArm 95.302909 -0.000000 103.209315
RightHand 2.385359 0.000000 -20.216823
RightHandThumb1 -24.326973 -0.000000 -32.862282
LeftShoulder -16.379565 35.247061 -10.616021
LeftArm 39.346250 4.676036 -59.195800
LeftForeArm 21.869281 -0.000000 27.560936
LeftHand -15.107108 0.000000 -8.209362
LeftHandThumb1 -26.253704 0.000000 33.147579
Head 7.772225 -39.085235 -6.673206
2231
root 1.533272 37.055509 2.850156 -1.018791 -7.621636 1.732797
RightUpLeg 9.242439 -2.896254 -2.766674
RightLeg -5.571225 -0.000000 0.000000
RightFoot -12.226214 -13.393889 15.448241
RightToeBase 15.411850 -0.000000 -0.000000
LeftUpLeg 8.986150 5.828854 2.691936
LeftLeg -2.709870 -0.000000 0.000000
LeftFoot -10.069929 14.055868 -19.203439
LeftToeBase 8.008228 -0.000000 -0.000000
Spine 3.262373 -2.250959 -7.685407
RightShoulder 6.020018 -15.319236 -35.971645
RightArm -170.002158 -172.054229 -171.016162
RightForeArm 95.954773 0.000000 101.915808
RightHand 1.963606 -0.000000 -20.802757
RightHandThumb1 -24.326973 -0.000000 -32.862282
LeftShoulder -16.433505 35.136050 -10.879360
LeftArm 39.522953 4.696355 -58.559074
LeftForeArm 21.888227 0.000000 27.334505
LeftHand -14.974803 -0.000000 -8.419994
LeftHandThumb1 -26.253704 0.000000 33.147579
Head 8.108017 -39.403244 -6.896106
2232
root 1.519943 37.054548 2.852191 -1.148182 -7.512632 1.745557
RightUpLeg 9.401664 -2.924215 -2.761898
RightLeg -5.585193 -0.000000 0.000000
RightFoot -12.266608 -13.442938 15.468549
RightToeBase 15.526531 -0.000000 -0.000000
LeftUpLeg 9.089487 5.774722 2.718325
LeftLeg -2.680492 -0.000000 0.000000
LeftFoot -10.054432 13.998336 -19.213831
LeftToeBase 8.013742 -0.000000 -0.000000
Spine 3.388232 -2.063358 -7.893243
RightShoulder 6.711148 -16.351121 -36.337801
RightArm -168.722889 -167.752080 -171.895224
RightForeArm 96.231959 0.000000 100.676449
RightHand 1.611187 -0.000000 -21.397001
RightHandThumb1 -24.326973 -0.000000 -32.862282
LeftShoulder -16.577663 34.990511 -11.194561
LeftArm 39.771203 4.762835 -57.848881
LeftForeArm 21.807546 -0.000000 27.134054
LeftHand -14.818334 -0.000000 -8.537156
LeftHandThumb1 -26.253704 0.000000 33.147579
Head 8.267576 -39.762434 -6.983740
2233
root 1.508475 37.053334 2.852568 -1.274959 -7.381849 1.765032
RightUpLeg 9.558260 -2.972602 -2.767004
RightLeg -5.599816 -0.000000 0.000000
RightFoot -12.317722 -13.484787 15.504203
RightToeBase 15.565588 -0.000000 -0.000000
LeftUpLeg 9.181134 5.731639 2.735288
LeftLeg -2.650766 -0.000000 0.000000
LeftFoot -10.032520 13.925400 -19.212600
LeftToeBase 7.994832 -0.000000 -0.000000
Spine 3.542087 -1.720117 -8.120074
RightShoulder 7.324370 -17.343880 -36.566625
RightArm -167.565395 -163.864322 -172.543758
RightForeArm 96.650284 -0.000000 99.460273
RightHand 0.994731 -0.000000 -21.838810
RightHandThumb1 -24.326973 -0.000000 -32.862282
LeftShoulder -16.469773 34.683578 -11.281211
LeftArm 39.850586 4.884916 -57.252844
LeftForeArm 21.875739 -0.000000 26.943955
LeftHand -14.643190 -0.000000 -8.694317
LeftHandThumb1 -26.253704 0.000000 33.147579
Head 8.322032 -40.201989 -6.949878
2234
root 1.494929 37.050833 2.855479 -1.416280 -7.246522 1.781513
RightUpLeg 9.737459 -3.030091 -2.766814
RightLeg -5.619517 -0.000000 0.000000
RightFoot -12.350101 -13.545726 15.502218
RightToeBase 15.535807 -0.000000 -0.000000
LeftUpLeg 9.297676 5.674022 2.758191
LeftLeg -2.630461 -0.000000 0.000000
LeftFoot -10.011839 13.862363 -19.179794
LeftToeBase 8.009121 -0.000000 -0.000000
Spine 3.746345 -1.341002 -8.334473
RightShoulder 7.729720 -18.732261 -36.624964
RightArm -166.211136 -160.912570 -173.220988
RightForeArm 97.076864 -0.000000 98.183579
RightHand 0.637466 -0.000000 -21.819686
RightHandThumb1 -24.326973 -0.000000 -32.862282
LeftShoulder -16.510040 34.570602 -11.508895
LeftArm 40.244919 4.990954 -56.504438
LeftForeArm 21.864557 -0.000000 26.730300
LeftHand -14.600118 -0.000000 -8.835884
LeftHandThumb1 -26.253704 0.000000 33.147579
Head 8.245146 -40.661509 -6.899187
2235
root 1.482632 37.046787 2.855381 -1.567248 -7.083900 1.794227
RightUpLeg 9.920275 -3.119778 -2.764240
RightLeg -5.628792 -0.000000 0.000000
RightFoot -12.412439 -13.609557 15.463999
RightToeBase 15.562489 -0.000000 -0.000000
LeftUpLeg 9.411967 5.585208 2.780520
LeftLeg -2.604843 -0.000000 0.000000
LeftFoot -10.011111 13.802966 -19.142815
LeftToeBase 8.047095 -0.000000 -0.000000
Spine 4.012996 -0.914036 -8.532641
RightShoulder 8.052034 -20.073706 -36.593262
RightArm -165.010538 -158.446662 -173.650985
RightForeArm 97.494658 0.000000 96.924832
RightHand 0.182920 -0.000000 -21.280050
RightHandThumb1 -24.326973 -0.000000 -32.862282
LeftShoulder -16.469508 34.404617 -11.660727
LeftArm 40.589041 5.112523 -55.794359
LeftForeArm 21.848285 0.000000 26.584333
LeftHand -14.632631 -0.000000 -8.935476
LeftHandThumb1 -26.253704 0.000000 33.147579
Head 7.979927 -41.074578 -6.740219
2236
root 1.468119 37.042422 2.852190 -1.707895 -6.901950 1.793523
RightUpLeg 10.094719 -3.229701 -2.746925
RightLeg -5.637470 -0.000000 0.000000
RightFoot -12.458705 -13.680876 15.406133
RightToeBase 15.398828 -0.000000 -0.000000
LeftUpLeg 9.511579 5.452684 2.815083
LeftLeg -2.580727 -0.000000 0.000000
LeftFoot -10.015761 13.770151 -19.101576
LeftToeBase 8.027566 -0.000000 -0.000000
Spine 4.322599 -0.457399 -8.724018
RightShoulder 8.208576 -21.194634 -36.353340
RightArm -164.006326 -156.350654 -173.853702
RightForeArm 97.820677 0.000000 95.755471
RightHand -0.434002 -0.000000 -20.481211
RightHandThumb1 -24.326973 -0.000000 -32.862282
LeftShoulder -16.415513 34.190686 -11.749828
LeftArm 40.920532 5.274579 -55.130739
LeftForeArm 21.962566 -0.000000 26.496034
LeftHand -14.639332 0.000000 -8.925565
LeftHandThumb1 -26.253704 0.000000 33.147579
Head 7.525419 -41.569649 -6.406902
2237
root 1.455135 37.037073 2.851283 -1.858250 -6.714385 1.788832
RightUpLeg 10.281530 -3.371492 -2.734485
RightLeg -5.645740 -0.000000 0.000000
RightFoot -12.512943 -13.693367 15.394987
RightToeBase 15.508876 -0.000000 -0.000000
LeftUpLeg 9.624938 5.312407 2.852452
LeftLeg -2.554896 -0.000000 0.000000
LeftFoot -10.042455 13.721596 -19.073046
LeftToeBase 8.034948 -0.000000 -0.000000
Spine 4.664036 -0.014060 -8.874337
RightShoulder 8.268139 -22.197509 -35.964396
RightArm -163.173885 -154.634929 -173.987111
RightForeArm 98.197587 -0.000000 94.854681
RightHand -0.694164 0.000000 -20.255394
RightHandThumb1 -24.326973 -0.000000 -32.862282
LeftShoulder -16.359456 33.930332 -11.829449
LeftArm 41.183000 5.442202 -54.519818
LeftForeArm 21.926185 0.000000 26.459858
LeftHand -14.500823 -0.000000 -8.978246
LeftHandThumb1 -26.253704 0.000000 33.147579
Head 7.044222 -41.978778 -6.199506
2238
root 1.440827 37.033201 2.845809 -1.967640 -6.508529 1.762527
RightUpLeg 10.430660 -3.486594 -2.687556
RightLeg -5.664764 -0.000000 0.000000
RightFoot -12.534153 -13.783751 15.363814
RightToeBase 15.385189 -0.000000 -0.000000
LeftUpLeg 9.685133 5.173490 2.912397
LeftLeg -2.523413 -0.000000 0.000000
LeftFoot -10.053250 13.651642 -19.041166
LeftToeBase 8.037062 -0.000000 -0.000000
Spine 4.976332 0.419942 -8.985738
RightShoulder 8.279657 -23.052647 -35.487383
RightArm -162.605223 -153.189880 -173.917154
RightForeArm 98.349599 -0.000000 94.299589
RightHand -0.593132 0.000000 -20.479698
RightHandThumb1 -24.326973 -0.000000 -32.862282
LeftShoulder -16.220040 33.775885 -11.854587
LeftArm 41.398299 5.520153 -54.030752
LeftForeArm 22.070081 -0.000000 26.556441
LeftHand -14.420467 0.000000 -8.879925
LeftHandThumb1 -26.253704 0.000000 33.147579
Head 6.532411 -42.369728 -5.976467
